<mxfile host="app.diagrams.net" modified="2023-04-26T00:14:59.996Z" agent="Mozilla/5.0 (Windows NT 10.0; Win64; x64) AppleWebKit/537.36 (KHTML, like Gecko) Chrome/112.0.0.0 Safari/537.36" etag="6Jk0kemQgeMzN26VpUEV" version="21.2.2" type="onedrive">
  <diagram name="Page-1" id="4YFlrx_z-z1ssEQUoslr">
    <mxGraphModel grid="1" page="1" gridSize="10" guides="1" tooltips="1" connect="1" arrows="1" fold="1" pageScale="1" pageWidth="850" pageHeight="1100" background="none" math="0" shadow="0">
      <root>
        <mxCell id="0" />
        <mxCell id="1" parent="0" />
        <mxCell id="DU4Cz_pEN3qpe8kS2Opr-17" style="edgeStyle=orthogonalEdgeStyle;rounded=0;orthogonalLoop=1;jettySize=auto;html=1;exitX=0.5;exitY=1;exitDx=0;exitDy=0;entryX=0.5;entryY=0;entryDx=0;entryDy=0;strokeWidth=3;" edge="1" parent="1" source="uRHi89zcH-qBpA1Djp04-7" target="uRHi89zcH-qBpA1Djp04-9">
          <mxGeometry relative="1" as="geometry" />
        </mxCell>
        <mxCell id="uRHi89zcH-qBpA1Djp04-7" value="" style="shape=image;verticalLabelPosition=bottom;verticalAlign=top;imageAspect=0;image=https://cdn-icons-png.flaticon.com/512/5956/5956592.png;textOpacity=0;" vertex="1" parent="1">
          <mxGeometry x="24.59" y="575" width="110.41" height="110" as="geometry" />
        </mxCell>
        <mxCell id="DU4Cz_pEN3qpe8kS2Opr-16" style="edgeStyle=orthogonalEdgeStyle;rounded=0;orthogonalLoop=1;jettySize=auto;html=1;exitX=0.5;exitY=1;exitDx=0;exitDy=0;entryX=0.5;entryY=0;entryDx=0;entryDy=0;strokeWidth=3;" edge="1" parent="1" source="uRHi89zcH-qBpA1Djp04-8" target="uRHi89zcH-qBpA1Djp04-7">
          <mxGeometry relative="1" as="geometry" />
        </mxCell>
        <mxCell id="uRHi89zcH-qBpA1Djp04-8" value="" style="shape=image;verticalLabelPosition=bottom;verticalAlign=top;imageAspect=0;image=https://cdn-icons-png.flaticon.com/512/977/977597.png" vertex="1" parent="1">
          <mxGeometry x="24.59" y="290" width="109.18" height="110" as="geometry" />
        </mxCell>
        <mxCell id="DU4Cz_pEN3qpe8kS2Opr-55" style="edgeStyle=orthogonalEdgeStyle;rounded=0;orthogonalLoop=1;jettySize=auto;html=1;exitX=1;exitY=0.5;exitDx=0;exitDy=0;strokeWidth=3;" edge="1" parent="1" source="uRHi89zcH-qBpA1Djp04-9" target="uRHi89zcH-qBpA1Djp04-10">
          <mxGeometry relative="1" as="geometry" />
        </mxCell>
        <mxCell id="uRHi89zcH-qBpA1Djp04-9" value="" style="shape=image;verticalLabelPosition=bottom;verticalAlign=top;imageAspect=0;image=https://cdn-icons-png.flaticon.com/512/584/584074.png" vertex="1" parent="1">
          <mxGeometry x="31.68" y="835" width="95" height="80" as="geometry" />
        </mxCell>
        <mxCell id="DU4Cz_pEN3qpe8kS2Opr-56" style="edgeStyle=orthogonalEdgeStyle;rounded=0;orthogonalLoop=1;jettySize=auto;html=1;exitX=0.5;exitY=0;exitDx=0;exitDy=0;entryX=0.5;entryY=1;entryDx=0;entryDy=0;strokeWidth=3;" edge="1" parent="1" source="uRHi89zcH-qBpA1Djp04-10" target="DU4Cz_pEN3qpe8kS2Opr-1">
          <mxGeometry relative="1" as="geometry" />
        </mxCell>
        <mxCell id="uRHi89zcH-qBpA1Djp04-10" value="" style="shape=image;verticalLabelPosition=bottom;verticalAlign=top;imageAspect=0;image=https://cdn-icons-png.flaticon.com/512/3708/3708173.png" vertex="1" parent="1">
          <mxGeometry x="227.5" y="635" width="120" height="110" as="geometry" />
        </mxCell>
        <mxCell id="DU4Cz_pEN3qpe8kS2Opr-58" style="edgeStyle=orthogonalEdgeStyle;rounded=0;orthogonalLoop=1;jettySize=auto;html=1;exitX=1;exitY=0.5;exitDx=0;exitDy=0;entryX=0;entryY=0.5;entryDx=0;entryDy=0;strokeWidth=3;" edge="1" parent="1" source="DU4Cz_pEN3qpe8kS2Opr-1" target="DU4Cz_pEN3qpe8kS2Opr-3">
          <mxGeometry relative="1" as="geometry" />
        </mxCell>
        <mxCell id="DU4Cz_pEN3qpe8kS2Opr-1" value="" style="shape=image;verticalLabelPosition=bottom;verticalAlign=top;imageAspect=0;image=https://icon-library.com/images/project-management-icon-png/project-management-icon-png-12.jpg" vertex="1" parent="1">
          <mxGeometry x="240" y="420" width="95" height="100" as="geometry" />
        </mxCell>
        <mxCell id="DU4Cz_pEN3qpe8kS2Opr-22" style="edgeStyle=orthogonalEdgeStyle;rounded=0;orthogonalLoop=1;jettySize=auto;html=1;exitX=1;exitY=0.5;exitDx=0;exitDy=0;entryX=0;entryY=0.5;entryDx=0;entryDy=0;strokeWidth=3;" edge="1" parent="1" source="DU4Cz_pEN3qpe8kS2Opr-3" target="DU4Cz_pEN3qpe8kS2Opr-4">
          <mxGeometry relative="1" as="geometry" />
        </mxCell>
        <mxCell id="DU4Cz_pEN3qpe8kS2Opr-3" value="" style="shape=image;verticalLabelPosition=bottom;verticalAlign=top;imageAspect=0;image=https://cdn-icons-png.flaticon.com/512/3286/3286696.png" vertex="1" parent="1">
          <mxGeometry x="460" y="440" width="105" height="100" as="geometry" />
        </mxCell>
        <mxCell id="DU4Cz_pEN3qpe8kS2Opr-23" style="edgeStyle=orthogonalEdgeStyle;rounded=0;orthogonalLoop=1;jettySize=auto;html=1;exitX=0.5;exitY=1;exitDx=0;exitDy=0;strokeWidth=3;" edge="1" parent="1" source="DU4Cz_pEN3qpe8kS2Opr-4" target="DU4Cz_pEN3qpe8kS2Opr-5">
          <mxGeometry relative="1" as="geometry" />
        </mxCell>
        <mxCell id="DU4Cz_pEN3qpe8kS2Opr-4" value="" style="shape=image;verticalLabelPosition=bottom;verticalAlign=top;imageAspect=0;image=https://static.thenounproject.com/png/3635016-200.png" vertex="1" parent="1">
          <mxGeometry x="680" y="440" width="110" height="100" as="geometry" />
        </mxCell>
        <mxCell id="DU4Cz_pEN3qpe8kS2Opr-5" value="" style="rounded=0;whiteSpace=wrap;html=1;" vertex="1" parent="1">
          <mxGeometry x="500" y="705" width="280" height="130" as="geometry" />
        </mxCell>
        <mxCell id="DU4Cz_pEN3qpe8kS2Opr-6" value="" style="rounded=1;whiteSpace=wrap;html=1;rotation=90;" vertex="1" parent="1">
          <mxGeometry x="725" y="765" width="120" height="10" as="geometry" />
        </mxCell>
        <mxCell id="DU4Cz_pEN3qpe8kS2Opr-9" value="" style="shape=delay;whiteSpace=wrap;html=1;rotation=90;" vertex="1" parent="1">
          <mxGeometry x="525" y="820" width="10" height="40" as="geometry" />
        </mxCell>
        <mxCell id="DU4Cz_pEN3qpe8kS2Opr-10" value="" style="shape=delay;whiteSpace=wrap;html=1;rotation=90;" vertex="1" parent="1">
          <mxGeometry x="740" y="820" width="10" height="40" as="geometry" />
        </mxCell>
        <mxCell id="DU4Cz_pEN3qpe8kS2Opr-12" value="" style="shape=delay;whiteSpace=wrap;html=1;rotation=-90;" vertex="1" parent="1">
          <mxGeometry x="740" y="680" width="10" height="40" as="geometry" />
        </mxCell>
        <mxCell id="DU4Cz_pEN3qpe8kS2Opr-13" value="" style="shape=delay;whiteSpace=wrap;html=1;rotation=-90;" vertex="1" parent="1">
          <mxGeometry x="525" y="680" width="10" height="40" as="geometry" />
        </mxCell>
        <mxCell id="DU4Cz_pEN3qpe8kS2Opr-14" value="" style="shape=image;verticalLabelPosition=bottom;verticalAlign=top;imageAspect=0;image=https://static.thenounproject.com/png/1271137-200.png" vertex="1" parent="1">
          <mxGeometry x="520" y="715.13" width="130" height="110" as="geometry" />
        </mxCell>
        <mxCell id="DU4Cz_pEN3qpe8kS2Opr-28" style="edgeStyle=orthogonalEdgeStyle;rounded=0;orthogonalLoop=1;jettySize=auto;html=1;exitX=0.5;exitY=0;exitDx=0;exitDy=0;entryX=0.5;entryY=1;entryDx=0;entryDy=0;strokeWidth=3;" edge="1" parent="1" source="DU4Cz_pEN3qpe8kS2Opr-15" target="DU4Cz_pEN3qpe8kS2Opr-27">
          <mxGeometry relative="1" as="geometry" />
        </mxCell>
        <mxCell id="DU4Cz_pEN3qpe8kS2Opr-15" value="" style="shape=image;verticalLabelPosition=bottom;verticalAlign=top;imageAspect=0;image=https://cdn-icons-png.flaticon.com/512/4341/4341568.png" vertex="1" parent="1">
          <mxGeometry x="950" y="725" width="90" height="90" as="geometry" />
        </mxCell>
        <mxCell id="DU4Cz_pEN3qpe8kS2Opr-26" style="edgeStyle=orthogonalEdgeStyle;rounded=0;orthogonalLoop=1;jettySize=auto;html=1;exitX=0.5;exitY=0;exitDx=0;exitDy=0;entryX=0;entryY=0.5;entryDx=0;entryDy=0;strokeWidth=3;" edge="1" parent="1" source="DU4Cz_pEN3qpe8kS2Opr-24" target="DU4Cz_pEN3qpe8kS2Opr-15">
          <mxGeometry relative="1" as="geometry" />
        </mxCell>
        <mxCell id="DU4Cz_pEN3qpe8kS2Opr-24" value="" style="shape=loopLimit;whiteSpace=wrap;html=1;rotation=90;" vertex="1" parent="1">
          <mxGeometry x="759.62" y="751.38" width="100.25" height="37.5" as="geometry" />
        </mxCell>
        <mxCell id="DU4Cz_pEN3qpe8kS2Opr-44" style="edgeStyle=orthogonalEdgeStyle;rounded=0;orthogonalLoop=1;jettySize=auto;html=1;exitX=0.5;exitY=0;exitDx=0;exitDy=0;entryX=0.588;entryY=1;entryDx=0;entryDy=0;entryPerimeter=0;strokeWidth=3;" edge="1" parent="1" source="DU4Cz_pEN3qpe8kS2Opr-27" target="DU4Cz_pEN3qpe8kS2Opr-31">
          <mxGeometry relative="1" as="geometry" />
        </mxCell>
        <mxCell id="DU4Cz_pEN3qpe8kS2Opr-27" value="" style="shape=image;verticalLabelPosition=bottom;verticalAlign=top;imageAspect=0;image=https://cdn-icons-png.flaticon.com/512/1572/1572155.png" vertex="1" parent="1">
          <mxGeometry x="932.5" y="510" width="125" height="120" as="geometry" />
        </mxCell>
        <mxCell id="DU4Cz_pEN3qpe8kS2Opr-45" style="edgeStyle=orthogonalEdgeStyle;rounded=0;orthogonalLoop=1;jettySize=auto;html=1;exitX=1;exitY=0.5;exitDx=0;exitDy=0;entryX=0;entryY=0.5;entryDx=0;entryDy=0;strokeWidth=3;" edge="1" parent="1" source="DU4Cz_pEN3qpe8kS2Opr-31" target="DU4Cz_pEN3qpe8kS2Opr-32">
          <mxGeometry relative="1" as="geometry" />
        </mxCell>
        <mxCell id="DU4Cz_pEN3qpe8kS2Opr-31" value="" style="shape=image;verticalLabelPosition=bottom;verticalAlign=top;imageAspect=0;image=https://static.thenounproject.com/png/2731493-200.png" vertex="1" parent="1">
          <mxGeometry x="932.5" y="320" width="107.5" height="100" as="geometry" />
        </mxCell>
        <mxCell id="DU4Cz_pEN3qpe8kS2Opr-46" style="edgeStyle=orthogonalEdgeStyle;rounded=0;orthogonalLoop=1;jettySize=auto;html=1;exitX=1;exitY=0.5;exitDx=0;exitDy=0;strokeWidth=3;" edge="1" parent="1" source="DU4Cz_pEN3qpe8kS2Opr-32">
          <mxGeometry relative="1" as="geometry">
            <mxPoint x="1480" y="559.5714285714287" as="targetPoint" />
          </mxGeometry>
        </mxCell>
        <mxCell id="DU4Cz_pEN3qpe8kS2Opr-32" value="" style="shape=image;verticalLabelPosition=bottom;verticalAlign=top;imageAspect=0;image=https://cdn-icons-png.flaticon.com/512/2562/2562004.png" vertex="1" parent="1">
          <mxGeometry x="1200" y="505" width="130" height="110" as="geometry" />
        </mxCell>
        <mxCell id="DU4Cz_pEN3qpe8kS2Opr-33" value="" style="rounded=0;whiteSpace=wrap;html=1;" vertex="1" parent="1">
          <mxGeometry x="1490" y="505" width="280" height="130" as="geometry" />
        </mxCell>
        <mxCell id="DU4Cz_pEN3qpe8kS2Opr-34" value="" style="rounded=1;whiteSpace=wrap;html=1;rotation=90;" vertex="1" parent="1">
          <mxGeometry x="1715" y="565" width="120" height="10" as="geometry" />
        </mxCell>
        <mxCell id="DU4Cz_pEN3qpe8kS2Opr-35" value="" style="shape=delay;whiteSpace=wrap;html=1;rotation=90;" vertex="1" parent="1">
          <mxGeometry x="1515" y="620" width="10" height="40" as="geometry" />
        </mxCell>
        <mxCell id="DU4Cz_pEN3qpe8kS2Opr-36" value="" style="shape=delay;whiteSpace=wrap;html=1;rotation=90;" vertex="1" parent="1">
          <mxGeometry x="1730" y="620" width="10" height="40" as="geometry" />
        </mxCell>
        <mxCell id="DU4Cz_pEN3qpe8kS2Opr-37" value="" style="shape=delay;whiteSpace=wrap;html=1;rotation=-90;" vertex="1" parent="1">
          <mxGeometry x="1730" y="480" width="10" height="40" as="geometry" />
        </mxCell>
        <mxCell id="DU4Cz_pEN3qpe8kS2Opr-38" value="" style="shape=delay;whiteSpace=wrap;html=1;rotation=-90;" vertex="1" parent="1">
          <mxGeometry x="1515" y="480" width="10" height="40" as="geometry" />
        </mxCell>
        <mxCell id="DU4Cz_pEN3qpe8kS2Opr-47" style="edgeStyle=orthogonalEdgeStyle;rounded=0;orthogonalLoop=1;jettySize=auto;html=1;exitX=0.5;exitY=0;exitDx=0;exitDy=0;strokeWidth=3;" edge="1" parent="1" source="DU4Cz_pEN3qpe8kS2Opr-39" target="DU4Cz_pEN3qpe8kS2Opr-42">
          <mxGeometry relative="1" as="geometry" />
        </mxCell>
        <mxCell id="DU4Cz_pEN3qpe8kS2Opr-39" value="" style="shape=loopLimit;whiteSpace=wrap;html=1;rotation=90;" vertex="1" parent="1">
          <mxGeometry x="1749.62" y="551.38" width="100.25" height="37.5" as="geometry" />
        </mxCell>
        <mxCell id="DU4Cz_pEN3qpe8kS2Opr-41" value="" style="shape=image;verticalLabelPosition=bottom;verticalAlign=top;imageAspect=0;image=https://cdn-icons-png.flaticon.com/512/4961/4961619.png" vertex="1" parent="1">
          <mxGeometry x="1525" y="520" width="105" height="100" as="geometry" />
        </mxCell>
        <mxCell id="DU4Cz_pEN3qpe8kS2Opr-42" value="" style="shape=image;verticalLabelPosition=bottom;verticalAlign=top;imageAspect=0;image=https://cdn-icons-png.flaticon.com/512/4814/4814842.png" vertex="1" parent="1">
          <mxGeometry x="1960" y="505.13" width="130" height="130" as="geometry" />
        </mxCell>
        <mxCell id="DU4Cz_pEN3qpe8kS2Opr-51" value="&lt;b&gt;&lt;font style=&quot;font-size: 10px; background-color: rgb(255, 255, 255);&quot;&gt;Entrar no nosso site&lt;/font&gt;&lt;/b&gt;" style="text;html=1;strokeColor=none;fillColor=none;align=center;verticalAlign=middle;whiteSpace=wrap;rounded=0;strokeWidth=1;" vertex="1" parent="1">
          <mxGeometry x="19.180000000000007" y="268" width="120" height="30" as="geometry" />
        </mxCell>
        <mxCell id="DU4Cz_pEN3qpe8kS2Opr-52" value="&lt;b style=&quot;border-color: var(--border-color); font-size: 10px;&quot;&gt;&lt;font style=&quot;border-color: var(--border-color);&quot;&gt;Ver noss&lt;/font&gt;o projeto&amp;nbsp;&lt;/b&gt;" style="text;html=1;strokeColor=none;fillColor=none;align=center;verticalAlign=middle;whiteSpace=wrap;rounded=0;" vertex="1" parent="1">
          <mxGeometry x="10" y="545" width="70" height="30" as="geometry" />
        </mxCell>
        <mxCell id="DU4Cz_pEN3qpe8kS2Opr-54" value="&lt;span style=&quot;font-size: 10px;&quot;&gt;&lt;b&gt;Testar nossa calculadora&amp;nbsp;&lt;/b&gt;&lt;/span&gt;" style="text;html=1;strokeColor=none;fillColor=none;align=center;verticalAlign=middle;whiteSpace=wrap;rounded=0;" vertex="1" parent="1">
          <mxGeometry x="7" y="801" width="70" height="40" as="geometry" />
        </mxCell>
        <mxCell id="DU4Cz_pEN3qpe8kS2Opr-59" value="&lt;span style=&quot;font-size: 10px;&quot;&gt;&lt;b&gt;Entrar contato conosco&lt;/b&gt;&lt;/span&gt;" style="text;html=1;strokeColor=none;fillColor=none;align=center;verticalAlign=middle;whiteSpace=wrap;rounded=0;" vertex="1" parent="1">
          <mxGeometry x="280" y="729" width="110" height="30" as="geometry" />
        </mxCell>
        <mxCell id="DU4Cz_pEN3qpe8kS2Opr-60" value="&lt;span style=&quot;font-size: 10px;&quot;&gt;&lt;b&gt;Planejamento&lt;/b&gt;&lt;/span&gt;" style="text;html=1;strokeColor=none;fillColor=none;align=center;verticalAlign=middle;whiteSpace=wrap;rounded=0;" vertex="1" parent="1">
          <mxGeometry x="180" y="510" width="110" height="30" as="geometry" />
        </mxCell>
        <mxCell id="DU4Cz_pEN3qpe8kS2Opr-61" value="&lt;span style=&quot;font-size: 10px;&quot;&gt;&lt;b&gt;Product Owner coleta os requisitos com o cliente&amp;nbsp;&lt;/b&gt;&lt;/span&gt;" style="text;html=1;strokeColor=none;fillColor=none;align=center;verticalAlign=middle;whiteSpace=wrap;rounded=0;" vertex="1" parent="1">
          <mxGeometry x="440" y="400" width="110" height="30" as="geometry" />
        </mxCell>
        <mxCell id="DU4Cz_pEN3qpe8kS2Opr-62" value="&lt;span style=&quot;font-size: 10px;&quot;&gt;&lt;b&gt;Planejamento da equipe + delegação de tarefas pelo Scrum Master&amp;nbsp;&lt;/b&gt;&lt;/span&gt;" style="text;html=1;strokeColor=none;fillColor=none;align=center;verticalAlign=middle;whiteSpace=wrap;rounded=0;" vertex="1" parent="1">
          <mxGeometry x="670" y="400" width="130" height="30" as="geometry" />
        </mxCell>
        <mxCell id="DU4Cz_pEN3qpe8kS2Opr-63" value="&lt;span style=&quot;font-size: 10px;&quot;&gt;&lt;b&gt;Infraestrutura do caminhão de transporte&lt;/b&gt;&lt;/span&gt;" style="text;html=1;strokeColor=none;fillColor=none;align=center;verticalAlign=middle;whiteSpace=wrap;rounded=0;" vertex="1" parent="1">
          <mxGeometry x="670" y="755" width="100" height="30" as="geometry" />
        </mxCell>
        <mxCell id="DU4Cz_pEN3qpe8kS2Opr-64" value="&lt;span style=&quot;font-size: 10px;&quot;&gt;&lt;b&gt;Orçamento Final&amp;nbsp;&lt;/b&gt;&lt;/span&gt;" style="text;html=1;strokeColor=none;fillColor=none;align=center;verticalAlign=middle;whiteSpace=wrap;rounded=0;" vertex="1" parent="1">
          <mxGeometry x="1020" y="735" width="100" height="30" as="geometry" />
        </mxCell>
        <mxCell id="DU4Cz_pEN3qpe8kS2Opr-65" value="&lt;span style=&quot;font-size: 10px; background-color: rgb(255, 255, 255);&quot;&gt;&lt;b&gt;Contrato com cliente&lt;/b&gt;&lt;/span&gt;" style="text;html=1;strokeColor=none;fillColor=none;align=center;verticalAlign=middle;whiteSpace=wrap;rounded=0;" vertex="1" parent="1">
          <mxGeometry x="937.5" y="521.38" width="112.5" height="38.62" as="geometry" />
        </mxCell>
        <mxCell id="DU4Cz_pEN3qpe8kS2Opr-66" value="&lt;span style=&quot;font-size: 10px;&quot;&gt;&lt;b&gt;Desenvolver solução&amp;nbsp;&lt;/b&gt;&lt;/span&gt;" style="text;html=1;strokeColor=none;fillColor=none;align=center;verticalAlign=middle;whiteSpace=wrap;rounded=0;" vertex="1" parent="1">
          <mxGeometry x="940" y="298" width="120" height="30" as="geometry" />
        </mxCell>
        <mxCell id="DU4Cz_pEN3qpe8kS2Opr-67" value="&lt;span style=&quot;font-size: 10px;&quot;&gt;&lt;b&gt;Homologação&lt;/b&gt;&lt;/span&gt;" style="text;html=1;strokeColor=none;fillColor=none;align=center;verticalAlign=middle;whiteSpace=wrap;rounded=0;" vertex="1" parent="1">
          <mxGeometry x="1170" y="505.13" width="120" height="30" as="geometry" />
        </mxCell>
        <mxCell id="DU4Cz_pEN3qpe8kS2Opr-68" value="&lt;span style=&quot;font-size: 10px;&quot;&gt;&lt;b&gt;Instalação do nosso sistema no caminhão do cliente&amp;nbsp;&lt;/b&gt;&lt;/span&gt;" style="text;html=1;strokeColor=none;fillColor=none;align=center;verticalAlign=middle;whiteSpace=wrap;rounded=0;" vertex="1" parent="1">
          <mxGeometry x="1650" y="555" width="110" height="30" as="geometry" />
        </mxCell>
        <mxCell id="DU4Cz_pEN3qpe8kS2Opr-69" value="&lt;span style=&quot;font-size: 10px;&quot;&gt;&lt;b&gt;Cliente usa nossa solução&amp;nbsp;&lt;/b&gt;&lt;/span&gt;" style="text;html=1;strokeColor=none;fillColor=none;align=center;verticalAlign=middle;whiteSpace=wrap;rounded=0;" vertex="1" parent="1">
          <mxGeometry x="2075" y="555" width="100" height="30" as="geometry" />
        </mxCell>
      </root>
    </mxGraphModel>
  </diagram>
</mxfile>
